
        <svg xmlns="http://www.w3.org/2000/svg" xmlns:xlink="http://www.w3.org/1999/xlink" version="1.1" width="3162.1621621621625" 
        height="666.5816100266953" viewBox="0 0 3162.1621621621625 666.5816100266953">
			<rect fill="#ffffff" width="3162.1621621621625" height="666.5816100266953"/>
			<g transform="scale(8.108108108108109) translate(10, 10)">
				<defs id="SvgjsDefs2458"></defs><g id="SvgjsG2459" featureKey="symbolFeature-0" transform="matrix(0.916590159610868,0,0,0.916590159610868,-6.242892835842665,-10.140235809897533)" fill="#dc143c"><path xmlns="http://www.w3.org/2000/svg" fill="#dc143c" d="M79.735,41.53h-1.479c0.004-0.095,0.013-0.187,0.013-0.283c0-2.248-1.227-4.204-3.046-5.249  c-0.24,1.74-0.526,3.59-0.847,5.532H72.16c4.208-25.388,0.873-29.475-3.941-30.334c-0.464-0.083-0.926-0.133-1.384-0.133  c-4.505,0-8.815,4.799-13.406,30.467h-0.203c-0.019-1.538-0.475-2.97-1.247-4.183c1.143-5.932,2.299-10.804,3.526-14.736  c-3.266,0.089-5.888,2.758-5.888,6.046c-1.385,0-2.696,0.298-3.884,0.824c-0.817-2.376-3.067-4.087-5.721-4.087  c-0.891,0-1.732,0.198-2.495,0.543c-1.107-1.208-2.692-1.971-4.46-1.971c-0.401,0-0.792,0.042-1.171,0.115  c1.321,1.283,2.242,2.972,2.553,4.854l0.322,1.95c-0.748,0.054-1.465,0.211-2.144,0.458l-0.339-2.051  c-0.034-0.2-0.08-0.396-0.129-0.588c-0.014-0.056-0.03-0.11-0.046-0.165c-0.043-0.146-0.09-0.29-0.14-0.432  c-0.019-0.048-0.035-0.096-0.052-0.143c-0.071-0.182-0.149-0.359-0.235-0.532c-0.013-0.024-0.027-0.047-0.038-0.072  c-0.078-0.148-0.162-0.295-0.248-0.437c-0.027-0.044-0.055-0.088-0.084-0.131c-0.089-0.137-0.182-0.269-0.28-0.398  c-0.018-0.023-0.036-0.049-0.054-0.073c-0.121-0.153-0.248-0.301-0.379-0.442c-0.021-0.022-0.044-0.044-0.066-0.066  c-0.113-0.119-0.233-0.232-0.355-0.341c-0.032-0.028-0.063-0.057-0.095-0.084c-0.734-0.631-1.604-1.1-2.548-1.358l-1.658-10.013  l-5.414,0.896l1.657,10.013c-2.057,1.395-3.23,3.9-2.797,6.512l1.67,10.092h-2.219l-0.822-4.966  c-0.056-0.001-0.11-0.012-0.167-0.012c-2.975,0-5.443,2.148-5.953,4.978h-1.567c-1.905,0-3.448,1.716-3.448,3.833  c0,2.116,1.542,3.83,3.448,3.83h1.437l5.798,27.874c0.373,1.115,1.419,1.869,2.596,1.869h49.813c1.177,0,2.222-0.754,2.596-1.869  l5.796-27.874h1.438c1.904,0,3.448-1.714,3.448-3.83C83.184,43.246,81.64,41.53,79.735,41.53z M31.115,73.161  c-0.146,0.02-0.292,0.026-0.434,0.026c-1.773,0-3.309-1.322-3.529-3.126l-2.09-17.152c-0.237-1.95,1.15-3.725,3.101-3.963  c1.954-0.239,3.725,1.151,3.963,3.102l2.092,17.151C34.455,71.15,33.065,72.924,31.115,73.161z M37.304,41.53H30.87  c-0.482-0.792-0.766-1.716-0.766-2.708c0-2.883,2.346-5.228,5.228-5.228c1.818,0,3.417,0.935,4.352,2.347  C38.234,37.369,37.328,39.344,37.304,41.53z M48.558,69.631c0,1.964-1.594,3.557-3.558,3.557c-1.966,0-3.559-1.593-3.559-3.557  V52.479c0-1.967,1.593-3.56,3.559-3.56c1.964,0,3.558,1.593,3.558,3.56V69.631z M40.042,41.53c0.045-2.843,2.369-5.143,5.222-5.143  c2.854,0,5.178,2.3,5.223,5.143H40.042z M64.938,52.909l-2.094,17.152c-0.221,1.804-1.754,3.126-3.528,3.126  c-0.143,0-0.287-0.007-0.435-0.026c-1.95-0.237-3.339-2.012-3.101-3.962l2.093-17.152c0.237-1.949,2.011-3.342,3.963-3.101  C63.787,49.185,65.176,50.96,64.938,52.909z M68.107,39.783c-0.314,0.088-0.759,0.188-1.281,0.25  c-0.404,0.052-0.853,0.078-1.328,0.078c-0.76,0-1.588-0.067-2.401-0.215c-1.323-0.236-2.608-0.677-3.546-1.165  c-0.469-0.239-0.853-0.486-1.116-0.679c-0.266-0.188-0.412-0.322-0.412-0.322s0.185-0.076,0.499-0.16  c0.314-0.088,0.758-0.186,1.281-0.25c0.406-0.052,0.857-0.078,1.337-0.078c0.758,0,1.582,0.067,2.393,0.211  c1.322,0.235,2.609,0.674,3.548,1.164c0.469,0.239,0.85,0.485,1.113,0.678c0.266,0.189,0.412,0.324,0.412,0.324  S68.421,39.697,68.107,39.783z M69.197,33.673c-0.313,0.09-0.758,0.188-1.28,0.251c-0.404,0.053-0.854,0.08-1.329,0.08  c-0.761,0-1.587-0.069-2.401-0.215c-1.323-0.237-2.608-0.678-3.544-1.167c-0.47-0.239-0.854-0.485-1.117-0.678  c-0.266-0.187-0.411-0.322-0.411-0.322s0.184-0.076,0.496-0.161c0.315-0.088,0.76-0.187,1.282-0.249  c0.406-0.052,0.858-0.079,1.338-0.079c0.758,0,1.583,0.067,2.392,0.212c1.323,0.235,2.61,0.673,3.546,1.163  c0.471,0.239,0.853,0.486,1.117,0.679c0.264,0.188,0.412,0.324,0.412,0.324S69.512,33.589,69.197,33.673z M70.288,27.564  c-0.313,0.088-0.759,0.188-1.282,0.251c-0.402,0.052-0.852,0.079-1.328,0.079c-0.76,0-1.587-0.069-2.4-0.216  c-1.322-0.237-2.609-0.678-3.545-1.165c-0.471-0.239-0.853-0.486-1.117-0.679c-0.266-0.187-0.411-0.322-0.411-0.322  s0.185-0.076,0.497-0.16c0.316-0.089,0.759-0.187,1.282-0.249c0.406-0.052,0.859-0.079,1.339-0.079c0.757,0,1.58,0.067,2.392,0.212  c1.322,0.234,2.609,0.672,3.546,1.162c0.469,0.24,0.85,0.485,1.115,0.679c0.266,0.189,0.412,0.324,0.412,0.324  S70.603,27.479,70.288,27.564z M70.978,21.201c-0.072,0.027-0.184,0.086-0.317,0.125c-0.271,0.096-0.652,0.202-1.104,0.283  c-0.424,0.077-0.909,0.117-1.421,0.117c-0.57,0-1.173-0.05-1.768-0.157c-1.126-0.202-2.216-0.606-3.005-1.068  c-0.394-0.232-0.717-0.464-0.937-0.646c-0.114-0.082-0.198-0.175-0.257-0.227c-0.058-0.054-0.089-0.083-0.089-0.083  s0.04-0.018,0.113-0.049c0.071-0.027,0.183-0.085,0.317-0.124c0.271-0.096,0.653-0.2,1.104-0.281  c0.428-0.077,0.916-0.117,1.433-0.117c0.566,0,1.167,0.049,1.757,0.153c1.126,0.2,2.217,0.603,3.004,1.066  c0.396,0.231,0.718,0.463,0.938,0.647c0.114,0.083,0.196,0.177,0.255,0.228c0.059,0.055,0.09,0.084,0.09,0.084  S71.053,21.169,70.978,21.201z"></path></g><g id="SvgjsG2460" featureKey="nameFeature-0" transform="matrix(1.8085024078601606,0,0,1.8085024078601606,89.39976042128954,-16.2987336300447)" fill="#fd0213"><path d="M24.824 11.777000000000001 l-9.2773 14.707 l0 13.516 l-5.8789 0 l0 -13.379 l-9.3359 -14.844 l6.4844 0 l5.7617 9.6094 l5.7813 -9.6094 l6.4648 0 z M39.238718750000004 40.39063 c-6.1914 0 -11.035 -3.1641 -11.035 -10.273 l0 -18.34 l5.8594 0 l0 17.539 c0 4.2969 2.2852 5.8984 5.1758 5.8984 c2.9102 0 5.2148 -1.6211 5.2148 -5.8984 l0 -17.539 l5.8594 0 l0 18.34 c0 7.1094 -4.8633 10.273 -11.074 10.273 z M89.37490625000001 40 l-5.8398 0 l-1.8555 -21.27 l-7.1484 21.27 l-3.7891 0 l-7.1484 -21.27 l-1.875 21.27 l-5.8594 0 l2.3633 -28.223 l8.3594 0 l6.0156 17.715 l6.0938 -17.715 l8.3594 0 z M127.85146875000001 40 l-5.8398 0 l-1.8555 -21.27 l-7.1484 21.27 l-3.7891 0 l-7.1484 -21.27 l-1.875 21.27 l-5.8594 0 l2.3633 -28.223 l8.3594 0 l6.0156 17.715 l6.0938 -17.715 l8.3594 0 z M155.15603125 11.777000000000001 l-9.2773 14.707 l0 13.516 l-5.8789 0 l0 -13.379 l-9.3359 -14.844 l6.4844 0 l5.7617 9.6094 l5.7813 -9.6094 l6.4648 0 z"></path></g>
			</g>
		</svg>
	